PathFileType	4	(X/Y/Z)	C:\Users\ebm\Documents\Erivelton\Erivelton2\wc6.trc
DataRate	CameraRate	NumFrames	NumMarkers	Units	OrigDataRate	OrigDataStartFrame	OrigNumFrames
150.00	150.00	      19	28	mm	150.00	433	      1154
Frame#	Time	IJ			PX			C7			T8			RAC			RAS			RPS			RAI			RPI			RLE			RME			RRS			RUS			R3M			R5M			LAC			LAS			LPS			LAI			LPI			LLE			LME			LRS			LUS			L3M			L5M			RW			LW			V_mid_elbow_r			V_mid_elbow_l			V_mid_wrist_r			V_mid_wrist_l			V_mid_trunk_low			V_mid_trunk_upp			
		X1	Y1	Z1	X2	Y2	Z2	X3	Y3	Z3	X4	Y4	Z4	X5	Y5	Z5	X6	Y6	Z6	X7	Y7	Z7	X8	Y8	Z8	X9	Y9	Z9	X10	Y10	Z10	X11	Y11	Z11	X12	Y12	Z12	X13	Y13	Z13	X14	Y14	Z14	X15	Y15	Z15	X16	Y16	Z16	X17	Y17	Z17	X18	Y18	Z18	X19	Y19	Z19	X20	Y20	Z20	X21	Y21	Z21	X22	Y22	Z22	X23	Y23	Z23	X24	Y24	Z24	X25	Y25	Z25	X26	Y26	Z26	X27	Y27	Z27	X28	Y28	Z28	

433	2.880							-1397.09937	1098.46045	-38.91975	-1536.30725	1008.08618	-27.03444	-1359.88977	1019.06329	169.86351				-1509.17700	940.94159	259.23175	-1541.99951	855.74609	290.88223	-1571.57764	900.35657	291.81320																			-1375.54932	1016.88434	-221.76180	-1496.61780	937.17804	-315.46100	-1530.54163	965.11200	-294.85715	-1549.51550	889.81390	-354.40930	-1590.19971	918.76331	-330.94577																									
434	2.887							-1386.67017	1097.89600	-38.66946	-1526.19495	1008.40363	-27.03083	-1349.05347	1018.20966	169.71974				-1498.19031	939.59827	259.56522	-1530.40466	854.21759	291.40775	-1560.27209	898.67365	292.35181																			-1364.46912	1016.41766	-221.21005	-1483.90637	935.27686	-316.27786	-1518.22925	963.86365	-296.84485	-1536.37256	887.64117	-355.55862	-1577.38940	917.19458	-333.65308													-1450.72534	541.24493	-362.24744										
435	2.893							-1376.30933	1097.41943	-38.43854	-1516.19727	1008.76910	-26.93846	-1338.45447	1017.56677	169.60190				-1487.19031	938.09790	260.04120	-1518.79529	852.43646	291.60287	-1548.84644	896.60278	292.88507																			-1353.61780	1016.13153	-220.56671	-1471.52380	933.16431	-316.86292	-1505.92969	962.40106	-298.84763	-1523.36731	884.80566	-356.11523	-1564.64270	915.28662	-336.02155													-1436.59705	539.01392	-362.37976										
436	2.900							-1366.07227	1097.04431	-38.26543	-1506.25049	1009.14911	-26.90350	-1328.14941	1017.11664	169.50063				-1476.20508	936.28802	260.64008	-1507.05273	850.05621	291.63336	-1537.38440	894.15735	293.51898																			-1342.98108	1015.95154	-219.92337	-1459.20935	930.87671	-317.52579	-1493.90564	960.69910	-300.89227	-1510.74243	882.01208	-356.56143	-1552.03577	913.01807	-337.98666													-1422.42310	536.51196	-362.27505										
437	2.907							-1355.80798	1096.73083	-38.14012	-1496.30371	1009.55353	-26.77196	-1318.01843	1016.82965	169.39700				-1465.18677	934.26379	261.33936	-1495.42273	847.62592	291.56030	-1525.81018	891.37549	294.20212																			-1332.46790	1015.81061	-219.38826	-1446.01208	926.58655	-317.39059	-1482.03149	958.83673	-302.89871	-1497.97437	878.68549	-356.74582	-1539.53906	910.34576	-339.85532													-1408.16345	533.66895	-362.19336										
438	2.913							-1345.56873	1096.51611	-38.03014	-1486.36340	1009.99182	-26.65494	-1308.10657	1016.52600	169.28783				-1454.19202	932.10999	262.00223	-1483.55872	844.83203	291.46136	-1514.23718	888.50122	294.99362																			-1322.19714	1015.64545	-218.97420	-1434.12146	924.44525	-318.06592	-1470.37170	956.81006	-304.51450	-1485.18457	875.60339	-356.98721	-1527.18982	907.49988	-341.60416													-1393.94238	530.49683	-362.20029										
439	2.920							-1335.34045	1096.36255	-37.93835	-1476.44897	1010.45056	-26.58149	-1298.12061	1016.18225	169.33258				-1443.27661	929.95526	262.68909	-1471.72229	842.15778	291.49762	-1502.65649	885.51733	295.82324	-1542.85156	833.34613	320.44467							-1452.71301	592.64014	308.20874							-1311.98669	1015.37610	-218.71426	-1422.30676	922.31659	-318.58606	-1458.97131	954.68896	-305.94055	-1470.97107	870.43518	-356.35529	-1514.93652	904.59583	-343.40137										-1451.45886	571.13300	-361.70035	-1379.73975	527.21466	-362.25449										
440	2.927							-1325.15564	1096.26819	-37.82829	-1466.51318	1010.95166	-26.48176	-1288.41382	1015.94818	169.48166				-1432.44128	927.79126	263.33908	-1459.67883	839.55695	291.73709	-1491.10645	882.50861	296.57034	-1530.53967	829.83020	321.21133							-1437.42395	590.77332	308.33438							-1301.87305	1015.05005	-218.59085	-1410.70056	920.31372	-319.27014	-1447.67932	952.49402	-307.07690	-1459.26135	867.71558	-357.22385	-1502.92798	901.66302	-344.66129										-1436.68860	568.67133	-361.62357	-1365.42139	523.68018	-362.19467										
441	2.933							-1315.01208	1096.23438	-37.73269	-1456.61353	1011.48712	-26.43048	-1278.57141	1015.49219	169.73898				-1421.62183	925.55054	263.89539	-1447.59827	836.81927	292.21988	-1479.52539	879.35120	297.21707	-1518.09949	826.04187	321.98703							-1422.27405	588.59259	308.49490							-1291.79236	1014.55896	-218.57922	-1399.22620	918.31195	-319.73505	-1436.63013	950.19458	-308.04651	-1447.19897	865.44836	-357.95883	-1491.05884	898.61133	-345.82565										-1421.72095	566.09363	-361.36136	-1351.23901	520.13525	-362.36557										
442	2.940							-1304.93127	1096.26306	-37.60898	-1446.68909	1012.03644	-26.41846	-1268.95007	1015.06964	170.01680				-1410.89551	923.25775	264.51492	-1435.45093	834.06903	292.60364	-1468.09290	876.16736	297.90421	-1505.60242	822.06030	322.52429							-1407.11902	586.13281	308.70428	-1339.99890	527.48608	304.82382				-1281.89697	1014.04785	-218.70390	-1387.87634	916.40704	-320.15268	-1425.68494	947.80450	-308.66315	-1434.88281	862.84747	-358.45499	-1479.34509	895.50201	-346.63290										-1406.68762	563.55237	-361.36182	-1336.85205	516.45795	-362.56076										
443	2.947							-1294.85620	1096.32788	-37.50663	-1436.79871	1012.53430	-26.40557	-1259.23010	1014.62634	170.40146				-1400.21924	920.87140	265.13574	-1423.29236	831.27264	292.95911	-1456.56689	872.85632	298.44470	-1493.11023	817.97736	323.04480							-1391.86865	583.33551	308.80209	-1325.50098	523.43695	305.07269				-1272.37537	1014.19495	-219.38794	-1376.62952	914.42999	-320.53250	-1414.90210	945.35437	-309.18164	-1422.69666	860.28381	-359.15280	-1467.57458	892.22845	-347.29550										-1391.34558	560.77496	-361.16904	-1322.56812	512.69159	-362.63629										
444	2.953							-1284.95959	1096.46777	-37.32980	-1426.99634	1013.01434	-26.35045	-1249.48462	1014.09686	170.73503				-1389.55737	918.42072	265.68634	-1410.95959	828.25610	293.45282	-1444.97241	869.22992	298.89441	-1480.45276	813.70972	323.40732							-1376.50769	580.32758	308.84387	-1310.97998	519.14520	305.18732				-1262.02649	1012.90723	-218.98764	-1365.28613	912.53302	-320.57025	-1404.14429	942.78699	-309.43039	-1410.15430	857.80377	-359.64886	-1455.73975	888.83167	-347.72125	-1471.26379	802.94928	-397.49930							-1376.09314	557.88757	-360.98645	-1308.15759	508.68628	-362.54227										
445	2.960							-1275.14612	1096.59045	-37.12458	-1417.30579	1013.46295	-26.25844	-1239.82996	1013.58014	171.11954				-1378.78162	915.66669	266.11868	-1398.49976	825.19000	293.77512	-1433.19373	865.38629	299.24353	-1467.54065	809.25122	323.66388							-1361.05469	577.28485	308.75546	-1296.20227	514.52435	305.02802				-1252.21704	1012.37128	-219.12221	-1354.02002	910.60284	-320.60315	-1393.39209	940.18311	-309.55679	-1397.50012	854.99188	-360.18921	-1443.89185	885.29565	-348.20374	-1457.51306	798.86871	-397.71518							-1360.86865	554.75458	-360.57419	-1293.86218	504.53140	-362.51862										
446	2.967							-1265.45667	1096.73218	-36.86963	-1407.76086	1013.86072	-26.11165	-1230.26929	1013.07928	171.41284				-1367.89453	912.82751	266.46347	-1385.76733	821.86279	294.01495	-1421.34033	861.38568	299.50598	-1454.48730	804.55536	323.73682				-1312.58069	580.96350	255.79268	-1345.42896	574.04358	308.80307	-1281.52844	509.83948	305.16846				-1242.45459	1011.92981	-219.21506	-1342.68799	908.67725	-320.56619	-1382.68359	937.48914	-309.65939	-1384.87476	852.37439	-360.54831	-1431.94934	881.54346	-348.24100	-1443.68750	794.66150	-397.53925							-1345.70288	551.44073	-360.33536	-1279.45740	500.12228	-362.50754										
447	2.973							-1255.96716	1096.87781	-36.55975	-1398.26001	1014.21338	-25.89044	-1220.70227	1012.46313	171.71877				-1356.93835	909.76691	266.78885	-1372.78796	818.35931	294.01492	-1409.27112	857.10022	299.64667	-1441.18396	799.60156	323.59540	-1481.04126	787.32263	252.76321	-1296.75732	577.26160	255.94766	-1329.73816	570.50757	308.63419	-1266.76575	504.88190	305.09271				-1232.70947	1011.53949	-219.26576	-1331.35754	906.67047	-320.41641	-1371.96631	934.64124	-309.66354	-1372.20532	849.44220	-360.46698	-1419.91711	877.58453	-348.37097	-1429.89453	790.34222	-397.20160							-1330.44177	547.95056	-360.15961	-1264.16602	493.72467	-360.25839	-1306.70923	490.20676	-368.92682							
448	2.980							-1246.63843	1097.08508	-36.18608	-1388.90332	1014.51398	-25.62742	-1211.23865	1012.07501	172.01045				-1345.76758	906.47656	267.12762	-1359.67786	814.61798	293.81039	-1395.44775	851.64331	301.57849	-1427.66504	794.35577	323.24722	-1467.48608	781.73407	252.64505				-1314.05444	566.62250	308.65067	-1252.10901	499.55273	305.41595				-1223.08240	1011.26630	-219.35748	-1320.06335	904.58691	-320.15414	-1361.29907	931.70044	-309.61920	-1359.30444	846.36676	-360.22946	-1407.70251	873.37415	-348.38867	-1415.82349	785.73016	-396.63223	-1469.52490	780.22015	-339.57895				-1314.92029	544.32275	-360.07190	-1249.22742	488.00476	-359.51083	-1292.22327	486.39474	-369.03775							
449	2.987							-1237.54736	1097.29980	-35.85639	-1379.67139	1014.80048	-25.29525	-1201.75366	1011.57654	172.28400				-1334.40076	902.96979	267.39203	-1346.08899	810.58270	293.32822	-1384.48120	848.23621	299.80481	-1413.79602	788.78271	322.65656	-1453.48694	775.85785	252.25296				-1298.35547	562.27295	308.70456	-1237.27100	493.70273	305.58447				-1213.52747	1011.07373	-219.36383	-1308.76648	902.40784	-319.81723	-1350.56897	928.54700	-309.58566	-1346.65161	843.29510	-359.65970	-1395.52185	868.98743	-348.24765	-1401.51245	780.86676	-395.84412	-1455.75647	774.97485	-339.24884				-1299.08521	540.61615	-359.79288	-1234.41174	482.44754	-359.19803	-1277.45093	482.38470	-369.25052							
450	2.993							-1228.59119	1097.57629	-35.51064	-1370.60596	1015.03845	-24.94322	-1192.11060	1011.07935	172.48409	-1288.49268	862.69501	259.82281	-1322.74011	899.19745	267.44659	-1332.19751	806.30560	292.50409	-1371.50061	843.08893	299.52887	-1399.60681	783.03180	321.95081	-1439.07800	769.78174	251.68385				-1282.72595	557.63757	308.83325	-1222.45251	487.43488	305.88428				-1204.11182	1010.98163	-219.30205	-1297.39587	900.07971	-319.40964	-1339.91418	925.28290	-309.57339	-1333.64758	839.73822	-359.04715	-1383.18005	864.29211	-347.99661	-1387.15649	775.93140	-394.84503	-1441.24561	769.42242	-338.50522				-1282.99255	536.67029	-359.74161	-1219.49683	476.71735	-358.96805	-1262.49878	477.95685	-369.18826							
451	3.000							-1219.85620	1097.87927	-35.13949	-1361.67944	1015.21527	-24.57590	-1182.58337	1010.67163	172.67035				-1310.83423	895.29407	267.47937	-1318.02563	801.91321	291.45972	-1358.14172	837.73193	299.12396	-1385.00879	777.12317	321.08850	-1424.24548	763.52509	250.92354	-1231.68225	558.24237	257.20657	-1266.76282	552.42889	308.98151	-1207.57324	480.88068	306.27148				-1194.87207	1010.91205	-219.12494	-1286.04358	897.57452	-319.01303	-1329.17676	921.78809	-309.63644	-1320.50903	835.89191	-358.14249	-1370.69482	859.41852	-347.52307	-1372.28430	770.57965	-393.68549	-1426.29224	763.79053	-337.55103				-1266.60571	532.45624	-359.66644	-1204.66077	470.46826	-358.61450	-1247.51331	473.00061	-369.02023							
